P2
34 14
255
128 128 128 128 128 128 128 128 128 128 128 128 128 128 128 128 128 128 128 128 128 128 128 128 128 128 128 128 128 128 128 128 128 128 128 128 128 128 128 128 128 128 128 128 128 128 128 128 128 128 128 128 128 128 128 128 128 128 128 128 128 128 128 128 128 128 128 128 128 128 255 255 255 255 255 255 128 128 255 255 255 255 255 255 128 128 128 128 255 255 255 255 128 128 255 255 255 255 255 255 128 128 128 128 255 255 255 255 255 255 128 128 255 255 255 255 255 255 128 128 128 128 255 255 255 255 128 128 255 255 255 255 255 255 128 128 128 128 128 128 255 255 128 128 128 128 255 255 128 128 128 128 128 128 255 255 128 128 128 128 128 128 128 128 255 255 128 128 128 128 128 128 128 128 255 255 128 128 128 128 255 255 128 128 128 128 128 128 255 255 128 128 128 128 128 128 128 128 255 255 128 128 128 128 128 128 128 128 255 255 128 128 128 128 255 255 255 255 255 255 128 128 128 128 255 255 128 128 128 128 128 128 255 255 128 128 128 128 128 128 128 128 255 255 128 128 128 128 255 255 255 255 255 255 128 128 128 128 255 255 128 128 128 128 128 128 255 255 128 128 128 128 128 128 128 128 255 255 128 128 128 128 255 255 128 128 128 128 128 128 128 128 128 128 255 255 128 128 128 128 255 255 128 128 128 128 128 128 128 128 255 255 128 128 128 128 255 255 128 128 128 128 128 128 128 128 128 128 255 255 128 128 128 128 255 255 128 128 128 128 128 128 128 128 255 255 128 128 128 128 255 255 255 255 255 255 128 128 255 255 255 255 128 128 128 128 128 128 255 255 128 128 128 128 128 128 128 128 255 255 128 128 128 128 255 255 255 255 255 255 128 128 255 255 255 255 128 128 128 128 128 128 255 255 128 128 128 128 128 128 128 128 128 128 128 128 128 128 128 128 128 128 128 128 128 128 128 128 128 128 128 128 128 128 128 128 128 128 128 128 128 128 128 128 128 128 128 128 128 128 128 128 128 128 128 128 128 128 128 128 128 128 128 128 128 128 128 128 128 128 128 128 128 128 128 128 