P2
11 3
255
128 128 255 128 128 128 255 128 128 128 128 128 128 255 255 255 128 128 255 128 128 128 128 128 255 128 128 128 128 128 255 128 128 